<?xml version="1.0" encoding="UTF-8" standalone="no"?>
<svg
   xmlns:dc="http://purl.org/dc/elements/1.1/"
   xmlns:cc="http://creativecommons.org/ns#"
   xmlns:rdf="http://www.w3.org/1999/02/22-rdf-syntax-ns#"
   xmlns:svg="http://www.w3.org/2000/svg"
   xmlns="http://www.w3.org/2000/svg"
   xmlns:sodipodi="http://sodipodi.sourceforge.net/DTD/sodipodi-0.dtd"
   xmlns:inkscape="http://www.inkscape.org/namespaces/inkscape"
   viewBox="0 0 576 576"
   version="1.1"
   id="svg8"
   sodipodi:docname="thumbnail.svg"
   width="576"
   height="576"
   inkscape:version="0.92.1 r15371"
   inkscape:export-filename="/home/branko/projects/factorio/inventory-templates/thumbnail.png"
   inkscape:export-xdpi="24"
   inkscape:export-ydpi="24">
  <metadata
     id="metadata14">
    <rdf:RDF>
      <cc:Work
         rdf:about="">
        <dc:format>image/svg+xml</dc:format>
        <dc:type
           rdf:resource="http://purl.org/dc/dcmitype/StillImage" />
        <dc:title />
      </cc:Work>
    </rdf:RDF>
  </metadata>
  <defs
     id="defs12" />
  <sodipodi:namedview
     pagecolor="#ffffff"
     bordercolor="#666666"
     borderopacity="1"
     objecttolerance="10"
     gridtolerance="10"
     guidetolerance="10"
     inkscape:pageopacity="0"
     inkscape:pageshadow="2"
     inkscape:window-width="1920"
     inkscape:window-height="1027"
     id="namedview10"
     showgrid="false"
     inkscape:zoom="0.65186406"
     inkscape:cx="309.36979"
     inkscape:cy="223.54558"
     inkscape:window-x="0"
     inkscape:window-y="0"
     inkscape:window-maximized="1"
     inkscape:current-layer="svg8"
     units="in"
     width="576in" />
  <path
     style="fill:#000000;fill-opacity:1;stroke-width:1.125"
     inkscape:connector-curvature="0"
     d="M 0,0 H 576 V 576 H 0 Z"
     id="path2" />
  <g
     class=""
     id="g6"
     transform="matrix(0.74418605,0,0,0.74418605,97.488371,97.488803)">
    <path
       style="fill:#ffffff;fill-opacity:1"
       inkscape:connector-curvature="0"
       d="m 186.438,20.56 -13.184,26.365 c 6.8,-0.26 13.626,-0.488 20.47,-0.686 l 3.84,-7.68 h 116.874 l 3.77,7.54 c 6.838,0.187 13.658,0.408 20.456,0.66 l -13.102,-26.2 H 186.437 Z m 69.56,42.742 c -45.757,0.056 -91.452,1.566 -135.38,4.363 -3.24,50.58 -8.4,100.987 -0.786,145.824 89.297,12.395 180.102,12.985 272.764,-0.054 7.055,-30.988 5.117,-84.68 -1.04,-145.89 -43.974,-2.893 -89.73,-4.3 -135.558,-4.244 z m 153.783,5.54 c 6.42,64.12 9.113,119.825 -1.135,155.22 l -1.61,5.56 -5.726,0.842 c -98.8,14.528 -195.613,13.81 -290.605,0.002 l -6.285,-0.914 -1.246,-6.23 c -9.89,-49.49 -4.085,-102.785 -0.664,-154.42 -4.89,0.354 -9.765,0.72 -14.602,1.107 -8.596,58.568 -9.39,116.957 -0.05,175.292 110.24,12.088 222.275,12.205 336.203,-0.01 8.502,-57.83 8.29,-116.25 -0.017,-175.313 -4.725,-0.4 -9.485,-0.776 -14.262,-1.14 z M 255.966,92.3 c 32.526,-0.025 65.067,2.746 97.574,8.39 l 7.46,1.295 v 7.572 c 0,15.554 1.683,35.105 -12.69,50.25 -9.912,10.444 -25.655,17.337 -51.31,20.585 v 18.164 H 215 V 180.104 C 191.008,176.734 175.648,169.929 165.637,159.919 150.807,145.093 151,125.56 151,109.56 v -7.594 l 7.484,-1.278 c 32.444,-5.54 64.955,-8.362 97.48,-8.386 z m 0.012,17.994 c -28.96,0.022 -57.913,2.444 -86.858,6.996 0.265,12.28 1.635,22.296 9.243,29.904 5.914,5.914 16.952,11.416 36.637,14.582 v -29.22 h 82 v 29.51 c 21.367,-3.115 32.66,-8.755 38.254,-14.65 7.033,-7.41 7.696,-17.502 7.73,-30.124 -29,-4.63 -58.006,-7.02 -87.007,-6.998 z M 233,150.56 v 30 h 46 v -30 z m 209.674,92.42 c -0.503,3.625 -1.042,7.25 -1.61,10.87 0.214,2.352 0.42,4.706 0.63,7.06 L 471,290.213 v -22.24 L 442.674,242.978 Z M 69.189,243.1 41,267.973 v 22.24 l 29.318,-29.318 c 0.205,-2.327 0.406,-4.655 0.616,-6.982 -0.618,-3.605 -1.202,-7.21 -1.745,-10.813 z m 354.634,20.397 c -10.29,1.09 -20.564,2.076 -30.824,2.967 v 74.095 h 16 v 66 h -16 v 80.615 c 10.318,-0.633 20.63,-1.313 30.928,-2.082 9.445,-74.01 6.478,-147.698 -0.104,-221.596 z m -335.576,0.03 C 81.725,338.09 78.58,412.1 88.06,485.1 c 10.324,0.79 20.638,1.504 30.94,2.145 V 406.56 h -16 v -66 h 16 v -74.024 c -10.266,-0.902 -20.517,-1.903 -30.752,-3.01 z m 286.752,4.4 c -10.014,0.76 -20.014,1.424 -30,1.992 v 70.64 h 30 z m -238,0.085 v 72.547 h 30 v -70.55 c -10.015,-0.568 -20.014,-1.237 -30,-1.997 z m 190,2.825 c -47.65,2.173 -94.984,2.19 -142,0.078 v 19.314 c 23.95,-5.165 47.8,-7.652 71.516,-7.59 23.638,0.06 47.145,2.654 70.484,7.626 v -19.43 z M 68.05,288.62 41,315.67 v 56.89 h 23.06 c 0.376,-27.987 1.88,-55.975 3.99,-83.94 z m 375.948,0.047 c 2.12,27.872 3.61,55.83 3.957,83.892 H 471 v -56.89 l -27.002,-27.003 z m -187.52,11.95 c -23.68,-0.063 -47.487,2.577 -71.478,8.052 v 31.89 h 16 v 18.443 c 17.033,5.346 31.73,8.493 46,9.426 v -2.87 h 18 v 2.868 c 14.27,-0.932 28.967,-4.08 46,-9.425 V 340.56 h 16 v -31.866 c -23.42,-5.267 -46.907,-8.016 -70.523,-8.078 z M 121,358.558 v 30 h 22 v -23 h 18 v 23 h 22 v -30 z m 208,0 v 30 h 22 v -23 h 18 v 23 h 22 v -30 z M 201,377.8 v 28.76 h -16 v 15.857 c 48.528,10.865 95.713,10.664 142,0.045 V 406.56 H 311 V 377.8 c -16.332,4.747 -31.283,7.52 -46,8.326 v 11.433 h -18 v -11.434 c -14.717,-0.806 -29.668,-3.58 -46,-8.326 z M 41,390.56 v 14 h 23.14 c -0.09,-4.667 -0.143,-9.334 -0.163,-14 z m 407.012,0 c -0.027,4.663 -0.083,9.33 -0.18,14 H 471 v -14 z M 137,406.56 v 19.798 c 6.137,7.214 11.222,9.77 14.934,9.844 3.734,0.075 8.697,-2.122 15.066,-9.79 V 406.56 h -6 v 7 h -18 v -7 z m 208,0 v 19.798 c 6.137,7.214 11.222,9.77 14.934,9.844 3.734,0.075 8.697,-2.122 15.066,-9.79 V 406.56 h -6 v 7 h -18 v -7 z m -304,16 v 35.154 c 5.596,5.51 8.677,8.25 11.846,9.306 2.454,0.818 7.713,1.15 15.045,1.317 -1.544,-15.25 -2.586,-30.51 -3.204,-45.778 H 41 Z m 406.27,0 c -0.628,15.224 -1.674,30.483 -3.21,45.78 7.358,-0.168 12.635,-0.5 15.094,-1.32 3.17,-1.056 6.25,-3.795 11.846,-9.306 V 422.56 Z M 185,440.842 v 49.498 c 47.55,1.51 94.877,1.446 142,-0.074 V 440.9 c -46.316,10.03 -93.74,10.185 -142,-0.057 z m -48,9.123 v 38.318 c 10.01,0.54 20.01,1.008 30,1.408 v -39.678 c -4.86,2.786 -10.01,4.293 -15.43,4.184 -5.192,-0.104 -10.036,-1.624 -14.57,-4.232 z m 208,0 v 39.654 c 10.01,-0.403 20.01,-0.878 30,-1.412 v -38.194 c -4.86,2.786 -10.01,4.293 -15.43,4.184 -5.192,-0.104 -10.036,-1.624 -14.57,-4.232 z"
       id="path4" />
  </g>
  <g
     transform="matrix(8,0,0,8,32,32)"
     id="g7191"
     style="fill:#ffffff">
    <path
       style="fill:#ffffff;fill-opacity:1"
       d="M 0,0.5 V 0 H 0.5 1 1.5 2 2.5 3 3.5 4 4.5 5 5.5 6 6.5 7 7.5 8 V 0.5 Q 8,1 8,1.5 8,2 7.5,2 7,2 6.5,2 6,2 5.5,2 5,2 4.5,2 4,2 3.5,2 3,2 2.5,2 2,2 2,2.5 2,3 2,3.5 2,4 2,4.5 2,5 2,5.5 2,6 2,6.5 2,7 2,7.5 2,8 1.5,8 1,8 0.5,8 H 0 V 7.5 7 6.5 6 5.5 5 4.5 4 3.5 3 2.5 2 1.5 1 0.5"
       id="path7157"
       inkscape:connector-curvature="0" />
    <path
       style="fill:#ffffff;fill-opacity:0"
       d="M 8,0.5 V 0 H 8.5 9 9.5 10 10.5 11 11.5 12 12.5 13 13.5 14 v 0.5 q 0,0.5 0,1 0,0.5 0.5,0.5 0.5,0 1,0 0.5,0 1,0 0.5,0 1,0 0.5,0 1,0 0.5,0 1,0 Q 20,2 20,1.5 20,1 20,0.5 V 0 h 0.5 0.5 0.5 0.5 0.5 0.5 0.5 0.5 0.5 0.5 0.5 0.5 0.5 0.5 0.5 0.5 v 0.5 q 0,0.5 0,1 0,0.5 0.5,0.5 0.5,0 1,0 0.5,0 1,0 0.5,0 1,0 0.5,0 1,0 0.5,0 1,0 0.5,0 1,0 0.5,0 1,0 Q 36,2 36,1.5 36,1 36,0.5 V 0 h 0.5 0.5 0.5 0.5 0.5 0.5 0.5 0.5 0.5 0.5 0.5 0.5 0.5 0.5 0.5 0.5 v 0.5 q 0,0.5 0,1 0,0.5 0.5,0.5 0.5,0 1,0 0.5,0 1,0 0.5,0 1,0 0.5,0 1,0 0.5,0 1,0 Q 50,2 50,1.5 50,1 50,0.5 V 0 h 0.5 0.5 0.5 0.5 0.5 0.5 0.5 0.5 0.5 0.5 0.5 0.5 v 0.5 q 0,0.5 0,1 0,0.5 0.5,0.5 0.5,0 1,0 0.5,0 1,0 0.5,0 1,0 0.5,0 1,0 0.5,0 1,0 0.5,0 0.5,0.5 0,0.5 0,1 0,0.5 0,1 0,0.5 0,1 0,0.5 0,1 0,0.5 0,1 0,0.5 0.5,0.5 0.5,0 1,0 H 64 V 8.5 9 9.5 10 10.5 11 11.5 12 12.5 13 13.5 14 h -0.5 q -0.5,0 -1,0 -0.5,0 -0.5,0.5 0,0.5 0,1 0,0.5 0,1 0,0.5 0,1 0,0.5 0,1 0,0.5 0,1 0,0.5 0.5,0.5 0.5,0 1,0 H 64 v 0.5 0.5 0.5 0.5 0.5 0.5 0.5 0.5 0.5 0.5 0.5 0.5 0.5 0.5 0.5 0.5 h -0.5 q -0.5,0 -1,0 -0.5,0 -0.5,0.5 0,0.5 0,1 0,0.5 0,1 0,0.5 0,1 0,0.5 0,1 0,0.5 0,1 0,0.5 0,1 0,0.5 0,1 0,0.5 0.5,0.5 0.5,0 1,0 H 64 v 0.5 0.5 0.5 0.5 0.5 0.5 0.5 0.5 0.5 0.5 0.5 0.5 0.5 0.5 0.5 0.5 h -0.5 q -0.5,0 -1,0 -0.5,0 -0.5,0.5 0,0.5 0,1 0,0.5 0,1 0,0.5 0,1 0,0.5 0,1 0,0.5 0,1 0,0.5 0.5,0.5 0.5,0 1,0 H 64 v 0.5 0.5 0.5 0.5 0.5 0.5 0.5 0.5 0.5 0.5 0.5 0.5 h -0.5 q -0.5,0 -1,0 -0.5,0 -0.5,0.5 0,0.5 0,1 0,0.5 0,1 0,0.5 0,1 0,0.5 0,1 0,0.5 0,1 0,0.5 -0.5,0.5 -0.5,0 -1,0 -0.5,0 -1,0 -0.5,0 -1,0 -0.5,0 -1,0 -0.5,0 -1,0 -0.5,0 -0.5,0.5 0,0.5 0,1 V 64 H 55.5 55 54.5 54 53.5 53 52.5 52 51.5 51 50.5 50 v -0.5 q 0,-0.5 0,-1 0,-0.5 -0.5,-0.5 -0.5,0 -1,0 -0.5,0 -1,0 -0.5,0 -1,0 -0.5,0 -1,0 -0.5,0 -1,0 -0.5,0 -0.5,0.5 0,0.5 0,1 V 64 H 43.5 43 42.5 42 41.5 41 40.5 40 39.5 39 38.5 38 37.5 37 36.5 36 v -0.5 q 0,-0.5 0,-1 0,-0.5 -0.5,-0.5 -0.5,0 -1,0 -0.5,0 -1,0 -0.5,0 -1,0 -0.5,0 -1,0 -0.5,0 -1,0 -0.5,0 -1,0 -0.5,0 -1,0 -0.5,0 -0.5,0.5 0,0.5 0,1 V 64 H 27.5 27 26.5 26 25.5 25 24.5 24 23.5 23 22.5 22 21.5 21 20.5 20 v -0.5 q 0,-0.5 0,-1 0,-0.5 -0.5,-0.5 -0.5,0 -1,0 -0.5,0 -1,0 -0.5,0 -1,0 -0.5,0 -1,0 -0.5,0 -1,0 -0.5,0 -0.5,0.5 0,0.5 0,1 V 64 H 13.5 13 12.5 12 11.5 11 10.5 10 9.5 9 8.5 8 V 63.5 Q 8,63 8,62.5 8,62 7.5,62 7,62 6.5,62 6,62 5.5,62 5,62 4.5,62 4,62 3.5,62 3,62 2.5,62 2,62 2,61.5 2,61 2,60.5 2,60 2,59.5 2,59 2,58.5 2,58 2,57.5 2,57 2,56.5 2,56 1.5,56 1,56 0.5,56 H 0 V 55.5 55 54.5 54 53.5 53 52.5 52 51.5 51 50.5 50 H 0.5 Q 1,50 1.5,50 2,50 2,49.5 2,49 2,48.5 2,48 2,47.5 2,47 2,46.5 2,46 2,45.5 2,45 2,44.5 2,44 1.5,44 1,44 0.5,44 H 0 V 43.5 43 42.5 42 41.5 41 40.5 40 39.5 39 38.5 38 37.5 37 36.5 36 H 0.5 Q 1,36 1.5,36 2,36 2,35.5 2,35 2,34.5 2,34 2,33.5 2,33 2,32.5 2,32 2,31.5 2,31 2,30.5 2,30 2,29.5 2,29 2,28.5 2,28 1.5,28 1,28 0.5,28 H 0 V 27.5 27 26.5 26 25.5 25 24.5 24 23.5 23 22.5 22 21.5 21 20.5 20 H 0.5 Q 1,20 1.5,20 2,20 2,19.5 2,19 2,18.5 2,18 2,17.5 2,17 2,16.5 2,16 2,15.5 2,15 2,14.5 2,14 1.5,14 1,14 0.5,14 H 0 V 13.5 13 12.5 12 11.5 11 10.5 10 9.5 9 8.5 8 H 0.5 Q 1,8 1.5,8 2,8 2,7.5 2,7 2,6.5 2,6 2,5.5 2,5 2,4.5 2,4 2,3.5 2,3 2,2.5 2,2 2.5,2 3,2 3.5,2 4,2 4.5,2 5,2 5.5,2 6,2 6.5,2 7,2 7.5,2 8,2 8,1.5 8,1 8,0.5"
       id="path7159"
       inkscape:connector-curvature="0" />
    <path
       style="fill:#ffffff;fill-opacity:1"
       d="M 14,0.5 V 0 H 14.5 15 15.5 16 16.5 17 17.5 18 18.5 19 19.5 20 V 0.5 Q 20,1 20,1.5 20,2 19.5,2 19,2 18.5,2 18,2 17.5,2 17,2 16.5,2 16,2 15.5,2 15,2 14.5,2 14,2 14,1.5 14,1 14,0.5"
       id="path7161"
       inkscape:connector-curvature="0" />
    <path
       style="fill:#ffffff;fill-opacity:1"
       d="M 28,0.5 V 0 H 28.5 29 29.5 30 30.5 31 31.5 32 32.5 33 33.5 34 34.5 35 35.5 36 V 0.5 Q 36,1 36,1.5 36,2 35.5,2 35,2 34.5,2 34,2 33.5,2 33,2 32.5,2 32,2 31.5,2 31,2 30.5,2 30,2 29.5,2 29,2 28.5,2 28,2 28,1.5 28,1 28,0.5"
       id="path7163"
       inkscape:connector-curvature="0" />
    <path
       style="fill:#ffffff;fill-opacity:1"
       d="M 44,0.5 V 0 H 44.5 45 45.5 46 46.5 47 47.5 48 48.5 49 49.5 50 V 0.5 Q 50,1 50,1.5 50,2 49.5,2 49,2 48.5,2 48,2 47.5,2 47,2 46.5,2 46,2 45.5,2 45,2 44.5,2 44,2 44,1.5 44,1 44,0.5"
       id="path7165"
       inkscape:connector-curvature="0" />
    <path
       style="fill:#ffffff;fill-opacity:1"
       d="M 56,0.5 V 0 H 56.5 57 57.5 58 58.5 59 59.5 60 60.5 61 61.5 62 62.5 63 63.5 64 V 0.5 1 1.5 2 2.5 3 3.5 4 4.5 5 5.5 6 6.5 7 7.5 8 H 63.5 Q 63,8 62.5,8 62,8 62,7.5 62,7 62,6.5 62,6 62,5.5 62,5 62,4.5 62,4 62,3.5 62,3 62,2.5 62,2 61.5,2 61,2 60.5,2 60,2 59.5,2 59,2 58.5,2 58,2 57.5,2 57,2 56.5,2 56,2 56,1.5 56,1 56,0.5"
       id="path7167"
       inkscape:connector-curvature="0" />
    <path
       style="fill:#ffffff;fill-opacity:1"
       d="M 0,14.5 V 14 h 0.5 q 0.5,0 1,0 0.5,0 0.5,0.5 0,0.5 0,1 0,0.5 0,1 0,0.5 0,1 0,0.5 0,1 0,0.5 0,1 Q 2,20 1.5,20 1,20 0.5,20 H 0 V 19.5 19 18.5 18 17.5 17 16.5 16 15.5 15 14.5"
       id="path7169"
       inkscape:connector-curvature="0" />
    <path
       style="fill:#ffffff;fill-opacity:1"
       d="m 62,14.5 q 0,-0.5 0.5,-0.5 0.5,0 1,0 H 64 v 0.5 0.5 0.5 0.5 0.5 0.5 0.5 0.5 0.5 0.5 0.5 0.5 h -0.5 q -0.5,0 -1,0 -0.5,0 -0.5,-0.5 0,-0.5 0,-1 0,-0.5 0,-1 0,-0.5 0,-1 0,-0.5 0,-1 0,-0.5 0,-1"
       id="path7171"
       inkscape:connector-curvature="0" />
    <path
       style="fill:#ffffff;fill-opacity:1"
       d="M 0,28.5 V 28 h 0.5 q 0.5,0 1,0 0.5,0 0.5,0.5 0,0.5 0,1 0,0.5 0,1 0,0.5 0,1 0,0.5 0,1 0,0.5 0,1 0,0.5 0,1 0,0.5 0,1 Q 2,36 1.5,36 1,36 0.5,36 H 0 V 35.5 35 34.5 34 33.5 33 32.5 32 31.5 31 30.5 30 29.5 29 28.5"
       id="path7173"
       inkscape:connector-curvature="0" />
    <path
       style="fill:#ffffff;fill-opacity:1"
       d="m 62,28.5 q 0,-0.5 0.5,-0.5 0.5,0 1,0 H 64 v 0.5 0.5 0.5 0.5 0.5 0.5 0.5 0.5 0.5 0.5 0.5 0.5 0.5 0.5 0.5 0.5 h -0.5 q -0.5,0 -1,0 -0.5,0 -0.5,-0.5 0,-0.5 0,-1 0,-0.5 0,-1 0,-0.5 0,-1 0,-0.5 0,-1 0,-0.5 0,-1 0,-0.5 0,-1 0,-0.5 0,-1"
       id="path7175"
       inkscape:connector-curvature="0" />
    <path
       style="fill:#ffffff;fill-opacity:1"
       d="M 0,44.5 V 44 h 0.5 q 0.5,0 1,0 0.5,0 0.5,0.5 0,0.5 0,1 0,0.5 0,1 0,0.5 0,1 0,0.5 0,1 0,0.5 0,1 Q 2,50 1.5,50 1,50 0.5,50 H 0 V 49.5 49 48.5 48 47.5 47 46.5 46 45.5 45 44.5"
       id="path7177"
       inkscape:connector-curvature="0" />
    <path
       style="fill:#ffffff;fill-opacity:1"
       d="m 62,44.5 q 0,-0.5 0.5,-0.5 0.5,0 1,0 H 64 v 0.5 0.5 0.5 0.5 0.5 0.5 0.5 0.5 0.5 0.5 0.5 0.5 h -0.5 q -0.5,0 -1,0 -0.5,0 -0.5,-0.5 0,-0.5 0,-1 0,-0.5 0,-1 0,-0.5 0,-1 0,-0.5 0,-1 0,-0.5 0,-1"
       id="path7179"
       inkscape:connector-curvature="0" />
    <path
       style="fill:#ffffff;fill-opacity:1"
       d="M 0,56.5 V 56 h 0.5 q 0.5,0 1,0 0.5,0 0.5,0.5 0,0.5 0,1 0,0.5 0,1 0,0.5 0,1 0,0.5 0,1 0,0.5 0,1 0,0.5 0.5,0.5 0.5,0 1,0 0.5,0 1,0 0.5,0 1,0 0.5,0 1,0 0.5,0 1,0 0.5,0 0.5,0.5 0,0.5 0,1 V 64 H 7.5 7 6.5 6 5.5 5 4.5 4 3.5 3 2.5 2 1.5 1 0.5 0 V 63.5 63 62.5 62 61.5 61 60.5 60 59.5 59 58.5 58 57.5 57 56.5"
       id="path7181"
       inkscape:connector-curvature="0" />
    <path
       style="fill:#ffffff;fill-opacity:1"
       d="m 62,56.5 q 0,-0.5 0.5,-0.5 0.5,0 1,0 H 64 V 56.5 57 57.5 58 58.5 59 59.5 60 60.5 61 61.5 62 62.5 63 63.5 64 H 63.5 63 62.5 62 61.5 61 60.5 60 59.5 59 58.5 58 57.5 57 56.5 56 v -0.5 q 0,-0.5 0,-1 0,-0.5 0.5,-0.5 0.5,0 1,0 0.5,0 1,0 0.5,0 1,0 0.5,0 1,0 0.5,0 1,0 0.5,0 0.5,-0.5 0,-0.5 0,-1 0,-0.5 0,-1 0,-0.5 0,-1 0,-0.5 0,-1 0,-0.5 0,-1"
       id="path7183"
       inkscape:connector-curvature="0" />
    <path
       style="fill:#ffffff;fill-opacity:1"
       d="m 14,62.5 q 0,-0.5 0.5,-0.5 0.5,0 1,0 0.5,0 1,0 0.5,0 1,0 0.5,0 1,0 0.5,0 1,0 0.5,0 0.5,0.5 0,0.5 0,1 V 64 H 19.5 19 18.5 18 17.5 17 16.5 16 15.5 15 14.5 14 v -0.5 q 0,-0.5 0,-1"
       id="path7185"
       inkscape:connector-curvature="0" />
    <path
       style="fill:#ffffff;fill-opacity:1"
       d="m 28,62.5 q 0,-0.5 0.5,-0.5 0.5,0 1,0 0.5,0 1,0 0.5,0 1,0 0.5,0 1,0 0.5,0 1,0 0.5,0 1,0 0.5,0 1,0 0.5,0 0.5,0.5 0,0.5 0,1 V 64 H 35.5 35 34.5 34 33.5 33 32.5 32 31.5 31 30.5 30 29.5 29 28.5 28 v -0.5 q 0,-0.5 0,-1"
       id="path7187"
       inkscape:connector-curvature="0" />
    <path
       style="fill:#ffffff;fill-opacity:1"
       d="m 44,62.5 q 0,-0.5 0.5,-0.5 0.5,0 1,0 0.5,0 1,0 0.5,0 1,0 0.5,0 1,0 0.5,0 1,0 0.5,0 0.5,0.5 0,0.5 0,1 V 64 H 49.5 49 48.5 48 47.5 47 46.5 46 45.5 45 44.5 44 v -0.5 q 0,-0.5 0,-1"
       id="path7189"
       inkscape:connector-curvature="0" />
  </g>
</svg>
